HIERARCHY
ROOT Hips
{
	OFFSET 0.00 0.00 0.00
	CHANNELS 6 Xposition Yposition Zposition Xrotation Yrotation Zrotation
	JOINT Spine
	{
		OFFSET 0.00000 7.53995 0.00000
		CHANNELS 3 Xrotation Yrotation Zrotation
		JOINT Head
		{
			OFFSET 0.00000 15.09381 0.00000
			CHANNELS 3 Xrotation Yrotation Zrotation
			End Site
			{
				OFFSET 0.00000 4.52755 0.00000
			}
		}
		JOINT LeftShoulder
		{
			OFFSET 0.00000 9.73893 0.00000
			CHANNELS 3 Xrotation Yrotation Zrotation
			JOINT LeftArm
			{
				OFFSET 7.08401 0.00000 0.00000
				CHANNELS 3 Xrotation Yrotation Zrotation
				JOINT LeftForeArm
				{
					OFFSET 10.25932 0.00000 0.00000
					CHANNELS 3 Yrotation Zrotation Xrotation
					JOINT LeftHand
					{
						OFFSET 9.89698 0.00000 0.00000
						CHANNELS 3 Xrotation Yrotation Zrotation
						JOINT LeftHandThumb1
						{
							OFFSET 0.00000 0.00000 0.00000
							CHANNELS 3 Xrotation Zrotation Yrotation
							End Site
							{
								OFFSET 0.00000 0.00000 3.93700
							}
						}
						End Site
						{
							OFFSET 3.93700 0.00000 0.00000
						}
					}
				}
			}
		}
		JOINT RightShoulder
		{
			OFFSET 0.00000 9.73893 0.00000
			CHANNELS 3 Xrotation Yrotation Zrotation
			JOINT RightArm
			{
				OFFSET -7.08401 0.00000 0.00000
				CHANNELS 3 Xrotation Yrotation Zrotation
				JOINT RightForeArm
				{
					OFFSET -10.25932 0.00000 0.00000
					CHANNELS 3 Yrotation Zrotation Xrotation
					JOINT RightHand
					{
						OFFSET -9.89698 0.00000 0.00000
						CHANNELS 3 Xrotation Yrotation Zrotation
						JOINT RightHandThumb1
						{
							OFFSET 0.00000 0.00000 0.00000
							CHANNELS 3 Xrotation Zrotation Yrotation
							End Site
							{
								OFFSET 0.00000 0.00000 3.93700
							}
						}
						End Site
						{
							OFFSET -3.93700 0.00000 0.00000
						}
					}
				}
			}
		}
	}
	JOINT LeftUpLeg
	{
		OFFSET 3.34548 0.00000 0.00000
		CHANNELS 3 Xrotation Yrotation Zrotation
		JOINT LeftLeg
		{
			OFFSET 0.00000 -19.11473 0.00000
			CHANNELS 3 Xrotation Yrotation Zrotation
			JOINT LeftFoot
			{
				OFFSET 0.00000 -16.04560 0.00000
				CHANNELS 3 Xrotation Yrotation Zrotation
				JOINT LeftToeBase
				{
					OFFSET 0.00000 -1.43467 5.35428
					CHANNELS 3 Xrotation Yrotation Zrotation
					End Site
					{
						OFFSET 0.00000 0.00000 2.95275
					}
				}
			}
		}
	}
	JOINT RightUpLeg
	{
		OFFSET -3.34548 0.00000 0.00000
		CHANNELS 3 Xrotation Yrotation Zrotation
		JOINT RightLeg
		{
			OFFSET 0.00000 -19.11473 0.00000
			CHANNELS 3 Xrotation Yrotation Zrotation
			JOINT RightFoot
			{
				OFFSET 0.00000 -16.04560 0.00000
				CHANNELS 3 Xrotation Yrotation Zrotation
				JOINT RightToeBase
				{
					OFFSET 0.00000 -1.43467 5.35428
					CHANNELS 3 Xrotation Yrotation Zrotation
					End Site
					{
						OFFSET 0.00000 0.00000 2.95275
					}
				}
			}
		}
	}
}
MOTION
Frames:	15
Frame Time: 0.008333
1.4098 37.1128 3.0228 9.0791 -0.6365 0.1960 -11.3258 -6.6682 -0.2742 1.2243 -3.3359 -1.4321 1.5273 8.0608 22.5567 -34.5296 7.7899 -16.5118 -8.4628 0.0000 9.4083 0.6581 3.6387 -10.2584 32.8623 0.0000 24.3270 -16.0744 -2.3450 -19.1134 -21.5188 -3.4630 19.1063 4.7118 0.0000 37.2136 5.0136 -15.6897 17.9733 33.1476 -0.0000 -26.2537 -10.6579 10.9275 5.1218 11.2609 -0.0000 -0.0000 -10.0453 16.3509 -15.5775 9.4977 -0.0000 -0.0000 -9.2635 -10.1123 -6.4054 7.8232 -0.0000 -0.0000 -10.0543 -13.7197 18.4487 13.9151 -0.0000 -0.0000
1.4111 37.1136 3.0180 9.0865 -0.6249 0.2008 -11.3112 -6.6657 -0.2771 1.1657 -3.3261 -1.4280 1.5291 8.0430 22.5629 -34.5379 7.8029 -16.5195 -8.4674 0.0000 9.3833 0.6819 3.7876 -10.2137 32.8623 0.0000 24.3270 -16.0755 -2.3402 -19.1172 -21.4954 -3.4786 19.1182 4.7233 0.0000 37.1903 5.0069 -15.6625 17.9790 33.1476 -0.0000 -26.2537 -10.6651 10.8925 5.1105 11.2526 -0.0000 -0.0000 -10.0424 16.3648 -15.5390 9.5135 -0.0000 -0.0000 -9.2811 -10.1339 -6.4102 7.8281 -0.0000 -0.0000 -10.0171 -13.5921 18.2128 13.6185 -0.0000 -0.0000
1.4125 37.1146 3.0132 9.0974 -0.6284 0.2087 -11.3021 -6.6542 -0.2821 1.1164 -3.3063 -1.4225 1.5160 8.0210 22.5714 -34.5201 7.8128 -16.5170 -8.4698 0.0000 9.3485 0.6844 3.7920 -10.2383 32.8623 0.0000 24.3270 -16.0608 -2.3432 -19.1159 -21.4807 -3.4745 19.1342 4.7222 -0.0000 37.1887 5.0059 -15.6565 17.9819 33.1476 -0.0000 -26.2537 -10.6761 10.8912 5.0987 11.2421 -0.0000 -0.0000 -10.0202 16.3586 -15.5649 9.4873 -0.0000 -0.0000 -9.2973 -10.1204 -6.4218 7.8132 -0.0000 -0.0000 -10.0360 -13.7047 18.4051 13.9256 -0.0000 -0.0000
1.4149 37.1160 3.0080 9.1113 -0.6240 0.2194 -11.2945 -6.6558 -0.2873 1.0564 -3.2849 -1.4170 1.5038 8.0073 22.5790 -34.5252 7.8303 -16.5137 -8.4676 -0.0000 9.3478 0.6806 3.7690 -10.2433 32.8623 0.0000 24.3270 -16.0470 -2.3326 -19.1296 -21.4674 -3.4953 19.1606 4.7365 0.0000 37.1859 5.0171 -15.6813 17.9940 33.1476 -0.0000 -26.2537 -10.6740 10.8557 5.0802 11.2048 -0.0000 -0.0000 -10.0034 16.3914 -15.5647 9.5304 -0.0000 -0.0000 -9.3231 -10.1223 -6.4339 7.8205 -0.0000 -0.0000 -9.9966 -13.6005 18.2295 13.6270 -0.0000 -0.0000
1.4165 37.1171 3.0038 9.1249 -0.6154 0.2274 -11.2886 -6.6539 -0.2919 1.0071 -3.2777 -1.4170 1.5038 7.9931 22.5859 -34.5217 7.8328 -16.5073 -8.4608 0.0000 9.3109 0.6803 3.7671 -10.2447 32.8623 0.0000 24.3270 -16.0384 -2.3338 -19.1344 -21.4686 -3.4988 19.1705 4.7233 0.0000 37.1795 5.0151 -15.6924 17.9756 33.1476 -0.0000 -26.2537 -10.6823 10.8381 5.0657 11.1865 -0.0000 -0.0000 -9.9825 16.3918 -15.5499 9.4896 -0.0000 -0.0000 -9.3503 -10.1540 -6.4532 7.8202 -0.0000 -0.0000 -10.0073 -13.6751 18.4326 13.9009 -0.0000 -0.0000
1.4176 37.1183 2.9981 9.1493 -0.6147 0.2310 -11.2883 -6.6559 -0.2953 0.9542 -3.2384 -1.4025 1.4890 7.9835 22.6062 -34.5254 7.8532 -16.4964 -8.4639 0.0000 9.2988 0.6793 3.7492 -10.2775 32.8623 0.0000 24.3270 -16.0922 -2.2978 -19.1162 -21.3866 -3.5015 19.1499 4.7157 -0.0000 37.1655 5.0190 -15.6814 18.0001 33.1476 -0.0000 -26.2537 -10.7147 10.8457 5.0603 11.1823 -0.0000 -0.0000 -9.9755 16.3764 -15.5321 9.5312 -0.0000 -0.0000 -9.3764 -10.1365 -6.4509 7.8121 -0.0000 -0.0000 -9.9572 -13.5976 18.2375 13.6141 -0.0000 -0.0000
1.4196 37.1194 2.9941 9.1652 -0.6079 0.2330 -11.2835 -6.6547 -0.2875 0.9105 -3.2173 -1.4147 1.4878 7.9688 22.6181 -34.5471 7.8722 -16.4864 -8.4529 -0.0000 9.3185 0.6710 3.6506 -10.4220 32.8623 0.0000 24.3270 -16.1092 -2.2783 -19.1258 -21.3663 -3.5237 19.1449 4.7094 -0.0000 37.1644 5.0184 -15.6786 18.0012 33.1476 -0.0000 -26.2537 -10.7232 10.8441 5.0533 11.1547 -0.0000 -0.0000 -9.9463 16.3636 -15.5793 9.5115 -0.0000 -0.0000 -9.3956 -10.1512 -6.4606 7.7945 -0.0000 -0.0000 -9.9663 -13.6788 18.4324 13.8949 -0.0000 -0.0000
1.4206 37.1209 2.9883 9.1886 -0.6018 0.2358 -11.2845 -6.6534 -0.2867 0.8698 -3.2081 -1.4145 1.4859 7.9456 22.6337 -34.5754 7.9015 -16.4633 -8.4508 -0.0000 9.3086 0.6638 3.6061 -10.4377 32.8623 0.0000 24.3270 -16.1256 -2.2612 -19.1277 -21.3859 -3.5635 19.1378 4.7178 -0.0000 37.1892 5.0319 -15.6913 18.0332 33.1476 -0.0000 -26.2537 -10.7521 10.8430 5.0470 11.1461 -0.0000 -0.0000 -9.9450 16.3705 -15.5323 9.5824 -0.0000 -0.0000 -9.4266 -10.1740 -6.4627 7.7906 -0.0000 -0.0000 -9.9242 -13.5677 18.2427 13.6208 -0.0000 -0.0000
1.4223 37.1226 2.9832 9.2200 -0.5931 0.2486 -11.2995 -6.6600 -0.3002 0.8424 -3.1743 -1.4074 1.4810 7.9382 22.6508 -34.5904 7.9176 -16.4418 -8.4549 0.0000 9.2886 0.6602 3.5895 -10.4292 32.8623 0.0000 24.3270 -16.1344 -2.2435 -19.1259 -21.3864 -3.5923 19.1302 4.7227 -0.0000 37.1887 5.0372 -15.6951 18.0471 33.1476 -0.0000 -26.2537 -10.7811 10.8565 5.0306 11.1277 -0.0000 -0.0000 -9.9198 16.3451 -15.5200 9.5479 -0.0000 -0.0000 -9.4607 -10.1772 -6.4807 7.7682 -0.0000 -0.0000 -9.9336 -13.6654 18.4163 13.8904 -0.0000 -0.0000
1.4234 37.1242 2.9777 9.2548 -0.5855 0.2549 -11.3184 -6.6524 -0.3071 0.8241 -3.1431 -1.4095 1.4644 7.9123 22.6696 -34.6084 7.9314 -16.4162 -8.4408 0.0000 9.2999 0.6586 3.6095 -10.3471 32.8623 0.0000 24.3270 -16.1409 -2.2406 -19.1255 -21.4026 -3.6252 19.1171 4.7294 0.0000 37.1934 5.0417 -15.7022 18.0549 33.1476 -0.0000 -26.2537 -10.8124 10.8703 5.0216 11.0988 -0.0000 -0.0000 -9.8886 16.3250 -15.5359 9.5787 -0.0000 -0.0000 -9.5003 -10.1929 -6.4909 7.7525 -0.0000 -0.0000 -9.9012 -13.6616 18.4560 13.8953 -0.0000 -0.0000
1.4241 37.1260 2.9720 9.2954 -0.5759 0.2611 -11.3426 -6.6543 -0.3164 0.8075 -3.1223 -1.3987 1.4559 7.8998 22.6992 -34.6224 7.9554 -16.4010 -8.4429 0.0000 9.3256 0.6622 3.6243 -10.3608 32.8623 0.0000 24.3270 -16.1390 -2.2370 -19.1203 -21.4120 -3.6423 19.1016 4.7230 0.0000 37.1762 5.0471 -15.7085 18.0663 33.1476 -0.0000 -26.2537 -10.8577 10.8862 5.0113 11.0834 -0.0000 -0.0000 -9.8728 16.3064 -15.4882 9.5846 -0.0000 -0.0000 -9.5464 -10.2141 -6.4941 7.7458 -0.0000 -0.0000 -9.8555 -13.5386 18.2300 13.6113 -0.0000 -0.0000
1.4253 37.1276 2.9678 9.3252 -0.5599 0.2660 -11.3582 -6.6665 -0.3244 0.8047 -3.1011 -1.3837 1.4420 7.8811 22.7237 -34.6471 7.9850 -16.3729 -8.4456 -0.0000 9.3516 0.6689 3.6795 -10.3104 32.8623 0.0000 24.3270 -16.1332 -2.2280 -19.1190 -21.4457 -3.6771 19.0908 4.7429 0.0000 37.1969 5.0532 -15.7021 18.0939 33.1476 -0.0000 -26.2537 -10.8874 10.9140 5.0044 11.0591 -0.0000 -0.0000 -9.8274 16.2644 -15.5179 9.5548 -0.0000 -0.0000 -9.5737 -10.2409 -6.5018 7.7210 -0.0000 -0.0000 -9.8238 -13.5188 18.2318 13.5720 -0.0000 -0.0000
1.4265 37.1294 2.9630 9.3631 -0.5488 0.2724 -11.3815 -6.6653 -0.3306 0.8026 -3.0869 -1.3822 1.4405 7.8671 22.7367 -34.6593 7.9919 -16.3393 -8.4466 0.0000 9.3277 0.6412 3.5016 -10.3840 32.8623 0.0000 24.3270 -16.1406 -2.2290 -19.1231 -21.4449 -3.6943 19.0791 4.7461 0.0000 37.1789 5.0554 -15.7055 18.0975 33.1476 -0.0000 -26.2537 -10.9238 10.9260 4.9957 11.0352 -0.0000 -0.0000 -9.8081 16.2410 -15.5178 9.5893 -0.0000 -0.0000 -9.6028 -10.2439 -6.5110 7.6781 -0.0000 -0.0000 -9.8394 -13.6356 18.4099 13.9138 -0.0000 -0.0000
1.4261 37.1312 2.9596 9.3873 -0.5374 0.2702 -11.3929 -6.6703 -0.3281 0.8222 -3.0601 -1.3867 1.4183 7.8395 22.7459 -34.6626 8.0020 -16.2916 -8.4506 0.0000 9.2922 0.6427 3.5128 -10.3744 32.8623 0.0000 24.3270 -16.1114 -2.2255 -19.1283 -21.5147 -3.7365 19.0649 4.7449 0.0000 37.2283 5.0558 -15.6926 18.1123 33.1476 -0.0000 -26.2537 -10.9456 10.9557 4.9982 11.0058 -0.0000 -0.0000 -9.7748 16.1990 -15.5225 9.5557 -0.0000 -0.0000 -9.6195 -10.2706 -6.5055 7.6549 -0.0000 -0.0000 -9.7801 -13.5199 18.2363 13.6035 -0.0000 -0.0000
1.4275 37.1330 2.9550 9.4214 -0.5314 0.2774 -11.4165 -6.6646 -0.3339 0.8523 -3.0375 -1.4000 1.4134 7.8142 22.7528 -34.6757 8.0069 -16.2509 -8.4449 -0.0000 9.2896 0.6264 3.4614 -10.2645 32.8623 0.0000 24.3270 -16.1258 -2.2144 -19.1098 -21.5241 -3.7404 19.0179 4.7159 0.0000 37.2612 5.0445 -15.6618 18.1066 33.1476 -0.0000 -26.2537 -10.9753 10.9736 4.9897 10.9784 -0.0000 -0.0000 -9.7501 16.1725 -15.5170 9.5813 -0.0000 -0.0000 -9.6515 -10.2766 -6.5172 7.6262 -0.0000 -0.0000 -9.7817 -13.6175 18.4291 13.9077 -0.0000 -0.0000
